<svg width="14" height="17" viewBox="0 0 14 17" fill="none" xmlns="http://www.w3.org/2000/svg">
<path d="M4.225 1.21764C4.39375 0.892723 4.74063 0.6875 5.11875 0.6875H8.88125C9.25938 0.6875 9.60625 0.892723 9.775 1.21764L10 1.64648H13C13.5531 1.64648 14 2.07593 14 2.60547C14 3.13501 13.5531 3.56445 13 3.56445H1C0.447812 3.56445 0 3.13501 0 2.60547C0 2.07593 0.447812 1.64648 1 1.64648H4L4.225 1.21764ZM0.971875 4.52344H13V14.1133C13 15.1712 12.1031 16.0312 11 16.0312H2.97187C1.89531 16.0312 0.971875 15.1712 0.971875 14.1133V4.52344ZM3.47187 6.9209V13.6338C3.47187 13.8975 3.725 14.1133 3.97187 14.1133C4.275 14.1133 4.47188 13.8975 4.47188 13.6338V6.9209C4.47188 6.65718 4.275 6.44141 3.97187 6.44141C3.725 6.44141 3.47187 6.65718 3.47187 6.9209ZM6.47188 6.9209V13.6338C6.47188 13.8975 6.725 14.1133 6.97188 14.1133C7.275 14.1133 7.5 13.8975 7.5 13.6338V6.9209C7.5 6.65718 7.275 6.44141 6.97188 6.44141C6.725 6.44141 6.47188 6.65718 6.47188 6.9209ZM9.5 6.9209V13.6338C9.5 13.8975 9.725 14.1133 10 14.1133C10.275 14.1133 10.5 13.8975 10.5 13.6338V6.9209C10.5 6.65718 10.275 6.44141 10 6.44141C9.725 6.44141 9.5 6.65718 9.5 6.9209Z" fill="white"/>
</svg>
