<svg width="48" height="48" viewBox="0 0 48 48" fill="none" xmlns="http://www.w3.org/2000/svg">
<path fill-rule="evenodd" clip-rule="evenodd" d="M42.4416 3.64375C39.7354 1.36971 36.2439 0 32.4324 0H15.5676C6.96984 0 0 6.96984 0 15.5676V32.4324C0 41.0302 6.96984 48 15.5676 48H32.4324C41.0302 48 48 41.0302 48 32.4324V15.5676C48 14.8697 47.9541 14.1826 47.8651 13.5091L25.9303 35.4438C23.8194 37.5548 20.3969 37.5548 18.2859 35.4438L8.28591 25.4438C6.17496 23.3329 6.17496 19.9104 8.28591 17.7995C10.3969 15.6884 13.8194 15.6884 15.9303 17.7995L22.1081 23.9772L42.4416 3.64375Z" fill="#2A60E4"/>
</svg>
