<svg width="24" height="24" viewBox="0 0 24 24" fill="none" xmlns="http://www.w3.org/2000/svg">
<path d="M23.3438 3.47635L20.5265 0.659176C19.6474 -0.219725 18.2202 -0.219725 17.3416 0.659176L14.6935 3.30995L20.6526 9.30992L23.3044 6.65915C24.2252 5.77978 24.2252 4.35525 23.3438 3.47635ZM1.45519 16.5047C1.35045 16.6094 1.27909 16.7428 1.24997 16.888L0.0150296 23.0614C-0.0799588 23.5359 0.288508 24 0.747697 24C0.796879 24 0.846951 23.9951 0.897681 23.985L7.07239 22.7503C7.21764 22.7213 7.35093 22.6499 7.45572 22.5453L19.6317 10.3719L13.6304 4.37197L1.45519 16.5047ZM6.18397 20.6344L2.66106 21.3389L3.36574 17.8163L4.50082 16.6828V19.5H7.31952L6.18397 20.6344Z" fill="#2A60E4"/>
</svg>
