<svg width="24" height="24" viewBox="0 0 24 24" fill="none" xmlns="http://www.w3.org/2000/svg">
<path d="M0 0H24V24H0V0Z" fill="#2A60E4"/>
<path d="M20 7.2C20 7.50705 19.8884 7.81425 19.6652 8.04825L10.5223 17.6483C10.3 17.8838 10.0071 18 9.71429 18C9.42143 18 9.12929 17.8828 8.90643 17.6484L4.335 12.8484C4.11179 12.615 4 12.3075 4 12C4 11.3145 4.53393 10.8 5.14286 10.8C5.43529 10.8 5.72786 10.9172 5.95071 11.1516L9.71429 15.105L18.05 6.3525C18.2714 6.11737 18.5643 6 18.8571 6C19.4679 6 20 6.51375 20 7.2Z" fill="white"/>
</svg>
